<svg width="14" height="14" viewBox="0 0 14 14" fill="none" xmlns="http://www.w3.org/2000/svg">
<path d="M12.6876 0.118295L0.43713 7.18358C-0.191801 7.54724 -0.128908 8.47415 0.54104 8.75031L4.37478 10.3362V13.1251C4.37478 13.9508 5.40842 14.309 5.92523 13.6802L7.58506 11.6623L11.0414 13.0896C11.5637 13.3056 12.1544 12.9747 12.2392 12.4142L13.9892 1.00966C14.1013 0.279616 13.3165 -0.245359 12.6876 0.118295ZM5.24982 13.1251V10.6971L6.74011 11.3123L5.24982 13.1251ZM11.3751 12.2802L5.73655 9.95064L11.1918 3.50329C11.3231 3.35017 11.1125 3.14237 10.9594 3.27361L3.97828 9.22333L0.874647 7.9437L13.1251 0.875681L11.3751 12.2802Z" fill="#008755"/>
</svg>
